#!OML:ASF H:\Male1\Project 1\Capture day 1\Session 1\Male1.ASF
:FULLY-SPECIFIED
:DEGREES
1749
root 18.1129 6.36277 1.30146 783.917 -91.4325 -802.483
lowerback 60.9307 1.15809 0.874363
upperback 14.6192 -2.12318 -0.58835
thorax -5.00778 -2.47228 -0.00545765
lowerneck -41.9002 -2.21133 -6.85878
upperneck 130.65 -78.5851 -126.376
head 223.388 -103.747 15.4883
rclavicle 1.17283e-014 4.57205e-015
rhumerus 7.34911 20.5323 -76.4773
rradius 43.4704
rwrist -7.80249
rhand -22.731 -6.8076
rfingers 7.12502
rthumb 3.70286 -36.7552
lclavicle 1.17283e-014 4.57205e-015
lhumerus 14.6232 -25.4644 67.744
lradius 41.0968
lwrist -8.7846
lhand -9.58704 7.42911
lfingers 7.12502
lthumb 16.3813 36.7573
rfemur 53.5025 -41.7505 -137.885
rtibia 161.995
rfoot -57.5526 11.2856
rtoes -23.8944
lfemur -81.513 11.1793 -24.5796
ltibia 154.801
lfoot -16.8583 1.09595
ltoes -3.6777
1750
root 18.1085 6.33572 1.28502 779.344 -91.2821 -798.078
lowerback 61.1655 1.15865 0.843385
upperback 14.5589 -2.16186 -0.623198
thorax -5.08044 -2.49542 -0.00991687
lowerneck -41.7752 -2.28674 -7.34374
upperneck 130.676 -78.926 -126.209
head 222.835 -105.413 15.7865
rclavicle -1.27222e-014 -9.34288e-015
rhumerus 7.00608 20.7342 -77.1493
rradius 43.0837
rwrist -7.50512
rhand -23.2579 -6.18888
rfingers 7.12502
rthumb 3.19401 -36.1447
lclavicle -1.27222e-014 -9.34288e-015
lhumerus 14.1668 -24.8976 68.1281
lradius 40.8441
lwrist -9.13473
lhand -9.53041 7.37932
lfingers 7.12502
lthumb 16.4358 36.7031
rfemur 53.375 -40.409 -137.787
rtibia 162.192
rfoot -58.4437 10.1781
rtoes -25.3699
lfemur -81.6003 11.0202 -24.4214
ltibia 155.102
lfoot -16.7556 1.46119
ltoes -3.04572
1751
root 18.1006 6.29793 1.26827 773.714 -91.1456 -792.682
lowerback 61.3874 1.14169 0.8262
upperback 14.4921 -2.21135 -0.666361
thorax -5.16054 -2.5218 -0.0247912
lowerneck -41.6173 -2.31304 -7.7888
upperneck 130.231 -79.3361 -125.614
head 222.49 -107.005 15.8405
rclavicle 3.65764e-014 1.5704e-014
rhumerus 6.60394 20.8878 -77.847
rradius 42.8018
rwrist -7.19954
rhand -23.971 -5.51236
rfingers 7.12502
rthumb 2.50534 -35.4774
lclavicle 3.65764e-014 1.5704e-014
lhumerus 13.6363 -24.438 68.4568
lradius 40.7057
lwrist -9.52402
lhand -9.42002 7.31913
lfingers 7.12502
lthumb 16.5421 36.634
rfemur 52.9523 -39.004 -137.549
rtibia 162.496
rfoot -59.2512 9.14409
rtoes -26.582
lfemur -81.7308 10.8618 -24.2359
ltibia 155.502
lfoot -16.609 1.74772
ltoes -2.41748
1752
root 18.0902 6.25144 1.25136 768.295 -91.0605 -787.537
lowerback 61.5868 1.13238 0.778689
upperback 14.4137 -2.26568 -0.710263
thorax -5.25307 -2.5497 -0.0250499
lowerneck -41.4279 -2.29647 -8.1789
upperneck 129.584 -79.7258 -124.855
head 222.296 -108.398 15.7561
rclavicle -3.53837e-014 -3.47873e-014
rhumerus 6.13385 21.026 -78.5381
rradius 42.6405
rwrist -6.89027
rhand -24.8463 -4.82702
rfingers 7.12502
rthumb 1.66003 -34.8003
lclavicle -3.53837e-014 -3.47873e-014
lhumerus 13.0059 -24.0985 68.7701
lradius 40.7227
lwrist -9.89563
lhand -9.27843 7.2587
lfingers 7.12502
lthumb 16.6784 36.5622
rfemur 52.2956 -37.5542 -137.257
rtibia 162.898
rfoot -59.961 8.25333
rtoes -27.3709
lfemur -81.9101 10.7018 -24.0566
ltibia 155.966
lfoot -16.3696 1.91569
ltoes -1.68221
1753
root 18.0775 6.19804 1.23479 764.493 -91.0308 -784.011
lowerback 61.7155 1.14077 0.689607
upperback 14.3386 -2.3178 -0.749534
thorax -5.34044 -2.57599 -0.00382169
lowerneck -41.2097 -2.26133 -8.5177
upperneck 128.839 -80.0529 -124.027
head 222.138 -109.582 15.6873
rclavicle -3.97569e-016 -7.15625e-015
rhumerus 5.59767 21.1911 -79.181
rradius 42.6228
rwrist -6.62197
rhand -25.8567 -4.15124
rfingers 7.12502
rthumb 0.68417 -34.1299
lclavicle -3.97569e-016 -7.15625e-015
lhumerus 12.2962 -23.8805 69.0801
lradius 40.9093
lwrist -10.1919
lhand -9.15816 7.20666
lfingers 7.12502
lthumb 16.7942 36.5003
rfemur 51.4743 -36.0783 -136.971
rtibia 163.387
rfoot -60.6266 7.57154
rtoes -27.759
lfemur -82.1573 10.5356 -23.899
ltibia 156.478
lfoot -16.0448 1.94692
ltoes -0.79253
1754
root 18.0624 6.14007 1.21902 763.156 -91.053 -782.93
lowerback 61.7371 1.16815 0.567821
upperback 14.2865 -2.36138 -0.785418
thorax -5.4002 -2.59749 0.0300158
lowerneck -40.9775 -2.22133 -8.82272
upperneck 128.111 -80.326 -123.235
head 222.022 -110.608 15.6137
rclavicle 5.1684e-015 -3.97569e-015
rhumerus 5.00873 21.3959 -79.7453
rradius 42.7548
rwrist -6.42532
rhand -26.9278 -3.51512
rfingers 7.12502
rthumb -0.350374 -33.4946
lclavicle 5.1684e-015 -3.97569e-015
lhumerus 11.5364 -23.7609 69.3975
lradius 41.2768
lwrist -10.3646
lhand -9.063 7.17346
lfingers 7.12502
lthumb 16.8858 36.4593
rfemur 50.5368 -34.5925 -136.728
rtibia 163.937
rfoot -61.217 7.08408
rtoes -27.6805
lfemur -82.4608 10.3661 -23.7893
ltibia 157.021
lfoot -15.6533 1.86512
ltoes 0.276931
1755
root 18.0449 6.08033 1.20414 765.535 -91.1479 -785.549
lowerback 61.6623 1.22311 0.396724
upperback 14.2667 -2.39908 -0.820462
thorax -5.42168 -2.61673 0.0816319
lowerneck -40.7545 -2.18638 -9.10741
upperneck 127.497 -80.5549 -122.567
head 221.957 -111.501 15.51
rclavicle 1.19271e-015 -6.75868e-015
rhumerus 4.38641 21.6353 -80.2083
rradius 43.0286
rwrist -6.30879
rhand -27.9617 -2.95438
rfingers 7.12502
rthumb -1.34895 -32.9299
lclavicle 1.19271e-015 -6.75868e-015
lhumerus 10.7734 -23.7074 69.7166
lradius 41.8085
lwrist -10.3531
lhand -8.99163 7.16299
lfingers 7.12502
lthumb 16.9545 36.443
rfemur 49.4335 -33.092 -136.559
rtibia 164.524
rfoot -61.7692 7.11695
rtoes -26.7061
lfemur -82.7497 10.2016 -23.7979
ltibia 157.561
lfoot -15.2306 1.71597
ltoes 1.521
1756
root 18.0253 6.02214 1.19013 771.96 -91.3596 -792.22
lowerback 61.5319 1.3081 0.149738
upperback 14.281 -2.4485 -0.865093
thorax -5.40278 -2.64322 0.15854
lowerneck -40.5536 -2.16071 -9.38027
upperneck 127.076 -80.7417 -122.1
head 221.951 -112.268 15.3662
rclavicle 6.75868e-015 -8.34896e-015
rhumerus 3.76362 21.8855 -80.5687
rradius 43.4029
rwrist -6.2577
rhand -28.8307 -2.5684
rfingers 7.12502
rthumb -2.18824 -32.5369
lclavicle 6.75868e-015 -8.34896e-015
lhumerus 10.0498 -23.6804 70.0195
lradius 42.4581
lwrist -10.1255
lhand -8.94306 7.17476
lfingers 7.12502
lthumb 17.0013 36.4508
rfemur 48.0494 -31.5602 -136.52
rtibia 165.126
rfoot -62.4199 7.68941
rtoes -24.9944
lfemur -82.9289 10.0501 -24.0282
ltibia 158.043
lfoot -14.823 1.5933
ltoes 2.82714
1757
root 18.0044 5.96907 1.17701 779.715 -91.7049 -800.236
lowerback 61.3875 1.40367 -0.15715
upperback 14.3229 -2.52506 -0.927908
thorax -5.35129 -2.68368 0.251337
lowerneck -40.3836 -2.13964 -9.64603
upperneck 126.865 -80.9041 -121.845
head 222.015 -112.938 15.1505
rclavicle -1.23246e-014 -8.34896e-015
rhumerus 3.19446 22.1191 -80.8345
rradius 43.7876
rwrist -6.24682
rhand -29.4295 -2.43058
rfingers 7.12502
rthumb -2.76647 -32.3924
lclavicle -1.23246e-014 -8.34896e-015
lhumerus 9.39697 -23.6363 70.292
lradius 43.1525
lwrist -9.71176
lhand -8.91062 7.21181
lfingers 7.12502
lthumb 17.0325 36.4851
rfemur 46.3512 -29.9983 -136.662
rtibia 165.711
rfoot -63.2298 8.9279
rtoes -22.4428
lfemur -82.9462 9.91267 -24.5176
ltibia 158.426
lfoot -14.4462 1.5836
ltoes 4.17693
1758
root 17.984 5.92457 1.16461 786.257 -92.1488 -807.045
lowerback 61.2612 1.48838 -0.482363
upperback 14.3803 -2.62827 -1.00199
thorax -5.28137 -2.73746 0.350137
lowerneck -40.2571 -2.11724 -9.91349
upperneck 126.784 -81.0715 -121.722
head 222.156 -113.552 14.837
rclavicle 1.55052e-014 2.66371e-014
rhumerus 2.74239 22.3251 -81.0097
rradius 44.0718
rwrist -6.23731
rhand -29.7567 -2.49284
rfingers 7.12502
rthumb -3.08252 -32.4503
lclavicle 1.55052e-014 2.66371e-014
lhumerus 8.84541 -23.5327 70.5357
lradius 43.7841
lwrist -9.22143
lhand -8.89603 7.26708
lfingers 7.12502
lthumb 17.0465 36.5392
rfemur 44.4581 -28.4349 -137.007
rtibia 166.241
rfoot -64.1624 10.727
rtoes -19.1521
lfemur -82.8224 9.78548 -25.2141
ltibia 158.694
lfoot -14.1203 1.72974
ltoes 5.48761
